<svg xmlns="http://www.w3.org/2000/svg" viewBox="0 0 300 300">
    <!-- Estrellas pequeñas -->
    <g fill="white">
        <circle cx="20" cy="30" r="1" />
        <circle cx="50" cy="60" r="1.5" />
        <circle cx="80" cy="40" r="1" />
        <circle cx="120" cy="80" r="1" />
        <circle cx="160" cy="30" r="1.5" />
        <circle cx="200" cy="70" r="1" />
        <circle cx="240" cy="40" r="1.5" />
        <circle cx="280" cy="90" r="1" />
        <circle cx="40" cy="120" r="1" />
        <circle cx="90" cy="150" r="1.5" />
        <circle cx="140" cy="180" r="1" />
        <circle cx="190" cy="140" r="1.5" />
        <circle cx="240" cy="170" r="1" />
        <circle cx="270" cy="200" r="1" />
        <circle cx="30" cy="230" r="1.5" />
        <circle cx="70" cy="260" r="1" />
        <circle cx="120" cy="240" r="1" />
        <circle cx="170" cy="280" r="1.5" />
        <circle cx="220" cy="250" r="1" />
        <circle cx="260" cy="270" r="1" />
    </g>
    <!-- Estrellas brillantes -->
    <g fill="white">
        <circle cx="100" cy="100" r="2">
            <animate attributeName="opacity" values="1;0.3;1" dur="3s" repeatCount="indefinite"/>
        </circle>
        <circle cx="200" cy="150" r="2">
            <animate attributeName="opacity" values="1;0.3;1" dur="2.5s" repeatCount="indefinite"/>
        </circle>
        <circle cx="150" cy="250" r="2">
            <animate attributeName="opacity" values="1;0.3;1" dur="4s" repeatCount="indefinite"/>
        </circle>
    </g>
</svg>